
<svg width="434" height="253" viewBox="0 0 434 253" fill="none" xmlns="http://www.w3.org/2000/svg">
<g clip-path="url(#clip0_876_35311)">
<path d="M0 205.891V169.156H11.7988V184.856L24.8819 169.156H39.5134L26.3223 184.268L39.7775 205.891H25.8422L18.0463 192.166L11.7988 198.197V205.885H0V205.891Z" fill="#010101"/>
<path d="M44.4828 205.891V169.156H56.2816V205.891H44.4828Z" fill="#010101"/>
<path d="M64.1852 205.891V169.156H74.2256L85.6523 182.347C85.9704 182.702 86.3965 183.218 86.9306 183.896C87.4647 184.574 88.0049 185.258 88.557 185.954C89.1091 186.65 89.5292 187.209 89.8113 187.635L90.0754 187.527C90.0394 186.53 90.0213 185.54 90.0213 184.562V169.156H100.752V205.891H90.7655L77.8985 191.206C77.2923 190.491 76.7762 189.843 76.3501 189.255C75.924 188.667 75.5159 188.109 75.1198 187.575L74.8557 187.683C74.8917 188.361 74.9098 189.033 74.9098 189.711V205.891H64.1792H64.1852Z" fill="#010101"/>
<path d="M125.43 206.533C119.308 206.533 114.723 204.931 111.68 201.726C108.638 198.521 107.113 193.786 107.113 187.521C107.113 183.32 107.894 179.815 109.46 177C111.026 174.191 113.307 172.073 116.296 170.645C119.284 169.222 122.897 168.508 127.134 168.508C129.697 168.508 132.109 168.802 134.372 169.39C136.634 169.978 138.627 170.849 140.355 172.007C142.084 173.165 143.428 174.618 144.388 176.358C145.349 178.104 145.829 180.133 145.829 182.443H134.564C134.564 181.663 134.378 180.949 134.006 180.307C133.634 179.665 133.124 179.125 132.481 178.681C131.839 178.236 131.101 177.9 130.267 177.666C129.433 177.432 128.551 177.318 127.626 177.318C126.24 177.318 125.01 177.504 123.941 177.876C122.873 178.248 121.991 178.813 121.301 179.557C120.605 180.307 120.082 181.195 119.728 182.227C119.374 183.26 119.194 184.454 119.194 185.804V189.219C119.194 191.001 119.506 192.52 120.131 193.786C120.755 195.052 121.697 196.019 122.963 196.697C124.223 197.375 125.784 197.711 127.638 197.711C128.887 197.711 130.033 197.525 131.083 197.153C132.133 196.781 132.98 196.235 133.622 195.527C134.264 194.812 134.582 193.996 134.582 193.072V192.856H126.252V185.378H145.847V205.885H139.761L138.585 202.254C137.481 203.178 136.268 203.965 134.954 204.601C133.64 205.243 132.193 205.723 130.627 206.041C129.061 206.359 127.332 206.521 125.448 206.521L125.43 206.533Z" fill="#010101"/>
<path d="M169.642 206.533C167.116 206.533 164.757 206.347 162.567 205.975C160.376 205.603 158.456 204.961 156.799 204.055C155.143 203.148 153.846 201.882 152.904 200.262C151.962 198.641 151.488 196.607 151.488 194.146V193.852C151.488 193.726 151.506 193.594 151.542 193.45H162.705C162.669 193.594 162.651 193.726 162.651 193.852V194.2C162.651 195.269 162.897 196.085 163.395 196.655C163.893 197.225 164.595 197.609 165.501 197.801C166.407 197.999 167.434 198.095 168.574 198.095C169 198.095 169.456 198.089 169.936 198.071C170.416 198.053 170.879 197.999 171.323 197.909C171.767 197.819 172.175 197.687 172.553 197.507C172.925 197.327 173.219 197.087 173.435 196.787C173.645 196.487 173.753 196.103 173.753 195.641C173.753 194.962 173.453 194.428 172.847 194.038C172.241 193.648 171.425 193.306 170.392 193.024C169.36 192.742 168.202 192.472 166.924 192.226C165.645 191.98 164.307 191.686 162.921 191.344C161.534 191.007 160.196 190.569 158.918 190.035C157.633 189.501 156.481 188.817 155.449 187.977C154.417 187.143 153.594 186.092 152.994 184.826C152.388 183.566 152.088 182.041 152.088 180.259C152.088 178.122 152.532 176.31 153.42 174.81C154.309 173.315 155.527 172.103 157.075 171.179C158.624 170.255 160.388 169.576 162.363 169.15C164.337 168.724 166.413 168.508 168.586 168.508C170.759 168.508 172.865 168.73 174.809 169.174C176.748 169.618 178.47 170.303 179.965 171.233C181.459 172.157 182.635 173.333 183.488 174.756C184.34 176.178 184.79 177.87 184.82 179.827V180.469H173.765V180.253C173.765 179.611 173.603 179.005 173.285 178.434C172.967 177.864 172.457 177.402 171.761 177.048C171.065 176.694 170.146 176.514 169.012 176.514C167.944 176.514 167.044 176.622 166.317 176.832C165.585 177.048 165.045 177.342 164.691 177.714C164.337 178.086 164.157 178.489 164.157 178.915C164.157 179.593 164.457 180.145 165.063 180.571C165.669 180.997 166.485 181.357 167.518 181.639C168.55 181.927 169.708 182.191 170.987 182.437C172.271 182.69 173.603 182.966 174.99 183.266C176.376 183.566 177.714 183.968 178.992 184.466C180.271 184.964 181.429 185.612 182.461 186.416C183.494 187.215 184.31 188.205 184.916 189.381C185.522 190.557 185.822 191.998 185.822 193.708C185.822 196.733 185.12 199.193 183.716 201.078C182.311 202.962 180.385 204.343 177.948 205.219C175.512 206.089 172.739 206.527 169.648 206.527L169.642 206.533Z" fill="#010101"/>
<path d="M201.306 205.891V169.156H213.105V196.499H231.955V205.897H201.306V205.891Z" fill="#010101"/>
<path d="M237.087 205.891V169.156H268.858V177.966H248.885V183.038H265.971V191.476H248.885V197.081H269.23V205.891H237.087Z" fill="#010101"/>
<path d="M272.057 205.891L285.458 169.156H299.183L312.585 205.891H300.09L298.541 200.712H285.674L284.126 205.891H272.057ZM288.129 192.49H296.141L294.376 186.614C294.232 186.188 294.076 185.672 293.896 185.066C293.716 184.46 293.542 183.818 293.362 183.146C293.182 182.467 293.008 181.801 292.828 181.141C292.648 180.481 292.486 179.905 292.348 179.407H291.922C291.778 180.049 291.592 180.775 291.363 181.597C291.129 182.419 290.889 183.26 290.643 184.136C290.391 185.006 290.145 185.834 289.893 186.62L288.129 192.496V192.49Z" fill="#010101"/>
<path d="M332.719 206.533C326.598 206.533 322.013 204.931 318.97 201.726C315.927 198.521 314.403 193.786 314.403 187.521C314.403 183.32 315.183 179.815 316.749 177C318.316 174.191 320.596 172.073 323.585 170.645C326.574 169.222 330.187 168.508 334.424 168.508C336.986 168.508 339.399 168.802 341.661 169.39C343.924 169.978 345.916 170.849 347.639 172.007C349.367 173.165 350.711 174.618 351.672 176.358C352.632 178.104 353.112 180.133 353.112 182.443H341.847C341.847 181.663 341.661 180.949 341.289 180.307C340.917 179.665 340.407 179.125 339.765 178.681C339.123 178.236 338.385 177.9 337.55 177.666C336.716 177.432 335.834 177.318 334.91 177.318C333.523 177.318 332.293 177.504 331.225 177.876C330.157 178.248 329.274 178.813 328.584 179.557C327.888 180.307 327.366 181.195 327.006 182.227C326.652 183.26 326.472 184.454 326.472 185.804V189.219C326.472 191.001 326.784 192.52 327.408 193.786C328.032 195.052 328.974 196.019 330.235 196.697C331.501 197.375 333.055 197.711 334.91 197.711C336.158 197.711 337.304 197.525 338.355 197.153C339.405 196.781 340.251 196.235 340.893 195.527C341.535 194.812 341.853 193.996 341.853 193.072V192.856H333.523V185.378H353.118V205.885H347.033L345.856 202.254C344.752 203.178 343.54 203.965 342.225 204.601C340.905 205.243 339.465 205.723 337.898 206.041C336.332 206.359 334.604 206.521 332.719 206.521V206.533Z" fill="#010101"/>
<path d="M376.944 206.533C373.097 206.533 369.814 205.957 367.089 204.799C364.365 203.64 362.276 201.918 360.818 199.62C359.36 197.321 358.627 194.482 358.627 191.104V169.156H370.426V190.941C370.426 192.898 370.96 194.518 372.029 195.803C373.097 197.087 374.717 197.723 376.89 197.723C379.062 197.723 380.689 197.081 381.775 195.803C382.861 194.518 383.401 192.904 383.401 190.941V169.156H395.2V191.104C395.2 194.488 394.48 197.327 393.04 199.62C391.599 201.918 389.517 203.64 386.792 204.799C384.067 205.957 380.785 206.533 376.938 206.533H376.944Z" fill="#010101"/>
<path d="M400.871 205.891V169.156H432.643V177.966H412.67V183.038H429.756V191.476H412.67V197.081H433.015V205.891H400.871Z" fill="#010101"/>
<path d="M143.128 243.55C143.128 243.868 143.446 244.084 143.764 244.084H149.081C149.4 244.084 149.718 243.874 149.826 243.448L153.12 215.691V215.583C153.12 215.265 152.91 215.049 152.694 215.049H146.951C146.633 215.049 146.525 215.259 146.525 215.583L143.122 243.55H143.128Z" fill="#010101"/>
<path d="M174.606 227.49C174.606 228.342 174.498 229.195 174.396 230.041L172.691 243.442C172.691 243.76 172.373 244.078 172.055 244.078H167.164C166.846 244.078 166.528 243.868 166.528 243.544V243.436L168.124 230.461C168.232 229.927 168.232 229.291 168.232 228.864C168.232 228.228 168.124 227.694 167.806 227.376C167.38 226.95 166.744 226.74 165.783 226.74C163.869 226.74 161.636 227.274 161.636 227.274L159.614 243.544C159.614 243.862 159.296 244.18 158.87 244.18H153.979C153.661 244.18 153.343 243.97 153.343 243.646V243.538L155.467 226.098C156.001 224.501 156.955 224.075 159.404 223.547C161.528 223.121 164.721 222.593 167.17 222.593C170.038 222.593 172.169 223.019 173.441 224.189C174.077 224.934 174.612 225.996 174.612 227.484L174.606 227.49Z" fill="#010101"/>
<path d="M225.12 215.577C225.12 215.259 225.012 215.151 224.693 215.151H218.95C218.632 215.151 218.416 215.361 218.416 215.685L214.905 244.822C214.371 247.799 213.099 247.799 211.076 247.907C210.224 247.907 209.48 247.907 208.952 248.015C208.316 248.015 208.1 248.225 207.998 248.867L207.679 251.208V251.418C207.679 251.952 207.998 252.054 208.424 252.054C209.168 252.162 209.486 252.264 212.253 252.264C216.934 252.264 220.763 250.884 221.507 244.606L225.12 215.571V215.577Z" fill="#010101"/>
<path d="M211.298 238.341C210.02 241.954 207.259 244.402 200.874 244.402C197.261 244.402 195.022 243.658 193.642 242.278C192.262 240.897 191.836 238.875 191.836 236.642C191.836 234.092 192.37 230.263 193.324 228.03C194.704 224.627 197.471 222.395 203.532 222.395C207.145 222.395 209.486 223.247 210.764 224.519C212.144 225.9 212.571 227.712 212.571 230.047C212.571 232.597 212.144 236.108 211.292 238.341M205.657 227.388C205.123 226.854 204.379 226.536 202.998 226.536C200.13 226.536 199.169 227.814 198.635 230.683C198.317 232.597 197.999 234.83 197.999 236.852C197.999 238.131 198.209 238.977 198.743 239.511C199.277 240.045 200.022 240.255 201.294 240.255C204.271 240.255 205.123 238.875 205.657 235.892C205.975 233.978 206.293 231.955 206.293 230.041C206.293 228.762 206.185 227.916 205.657 227.382" fill="#010101"/>
<path d="M245.644 238.341C244.366 241.954 241.605 244.402 235.22 244.402C231.607 244.402 229.369 243.658 227.988 242.278C226.608 240.897 226.182 238.875 226.182 236.642C226.182 234.092 226.716 230.263 227.67 228.03C229.05 224.627 231.817 222.395 237.987 222.395C241.599 222.395 243.94 223.247 245.218 224.519C246.599 225.9 247.025 227.712 247.025 230.047C246.917 232.597 246.491 236.108 245.644 238.341ZM240.009 227.388C239.475 226.854 238.731 226.536 237.35 226.536C234.482 226.536 233.522 227.814 232.987 230.683C232.669 232.597 232.351 234.83 232.351 236.852C232.351 238.131 232.459 238.977 233.095 239.511C233.63 240.045 234.374 240.255 235.646 240.255C238.623 240.255 239.475 238.875 240.009 235.892C240.327 233.978 240.645 231.955 240.645 230.041C240.753 228.762 240.537 227.916 240.009 227.382" fill="#010101"/>
<path d="M269.044 237.699C267.664 242.164 264.897 244.396 258.518 244.396C255.433 244.396 252.666 243.97 251.178 243.442C249.582 242.908 249.263 242.272 249.263 241.209C249.263 240.675 249.371 240.039 249.473 239.295L252.24 216.003C252.24 215.469 252.558 215.151 253.092 215.049H257.984C258.302 215.049 258.62 215.259 258.62 215.583V215.691L257.984 220.799L257.665 223.139C257.665 223.139 260.114 222.395 262.665 222.395C265.215 222.395 267.238 222.929 268.408 224.099C269.578 225.27 270.214 227.076 270.214 229.843C270.214 232.393 269.788 235.268 269.044 237.711M263.409 227.502C262.875 226.866 262.028 226.65 260.75 226.65C259.154 226.65 257.029 227.184 257.029 227.184L255.433 239.943C255.433 239.943 256.813 240.261 258.518 240.261C261.386 240.261 262.557 239.409 263.301 235.262C263.619 233.558 263.835 231.751 263.835 229.945C263.943 228.774 263.727 227.922 263.409 227.496" fill="#010101"/>
<path d="M289.035 226.746C288.927 227.064 288.717 227.172 288.399 227.172H288.189C287.763 227.172 285.53 226.638 283.406 226.638C282.451 226.638 281.173 226.746 280.429 227.382C279.895 227.808 279.685 228.444 279.685 229.087C279.685 230.791 281.491 230.791 283.406 231.211C285.002 231.421 286.598 231.847 287.661 232.915C288.513 233.66 288.939 234.83 288.939 236.636C288.939 238.551 288.303 240.573 286.916 242.062C285.11 243.868 282.343 244.612 279.259 244.612C275.856 244.612 272.663 243.76 272.027 243.442C271.919 243.334 271.709 243.334 271.709 243.016V242.698L272.561 240.147C272.669 239.829 272.879 239.613 273.095 239.613H273.305C273.839 239.721 276.6 240.567 279.048 240.567C280.219 240.567 281.173 240.357 281.917 239.715C282.553 239.181 282.769 238.545 282.769 237.909C282.769 237.056 282.451 236.63 281.917 236.312C281.383 235.994 280.639 235.886 279.685 235.778C278.196 235.46 276.174 235.244 274.902 233.972C274.157 233.12 273.623 232.057 273.623 230.461C273.623 228.654 274.049 226.848 275.22 225.462C277.242 223.013 280.645 222.695 283.195 222.695C286.388 222.695 288.831 223.331 289.575 223.649C289.893 223.757 289.893 223.967 289.893 224.183V224.393L289.041 226.734L289.035 226.746Z" fill="#010101"/>
<path d="M192.472 215.793C191.836 215.583 190.023 215.157 187.154 215.157C182.473 215.157 180.031 217.282 179.497 221.537L179.287 224.087L178.752 228.45L176.838 242.488V242.806L176.73 243.55C176.73 243.868 177.048 243.976 177.366 243.976H182.047C182.365 243.976 182.791 243.868 182.899 243.442V243.124L185.024 228.45H189.915C190.233 228.45 190.551 228.24 190.551 227.814L190.977 224.621C190.977 224.303 190.767 224.087 190.443 224.087H185.336L185.654 221.537C185.864 219.832 186.608 219.412 188.523 219.412C189.585 219.412 190.863 219.622 191.289 219.73H191.499C191.818 219.73 191.926 219.52 192.034 219.196L192.778 216.429V216.219C192.778 216.009 192.67 215.793 192.46 215.793H192.472Z" fill="#010101"/>
<path d="M153.192 124.434C158.204 129.679 168.976 132.368 168.976 132.368C172.445 137.211 177.792 141.568 184.508 145.289C191.224 149.015 203.4 152.802 207.175 154.105C210.944 155.407 216.195 157.706 216.195 157.706C217.426 156.709 238.779 149.286 246.383 146.015C253.992 142.744 263.889 135.206 268.684 125.694C273.485 116.182 272.993 106.141 272.993 106.141C261.662 107.552 256.753 111.837 243.994 111.789C231.241 111.741 221.723 100.848 221.723 100.848C241.642 108.77 253.338 104.353 260.09 102.03C266.836 99.7077 272.561 98.9335 272.561 98.9335L271.859 91.7798C271.859 91.7798 268.432 91.6178 266.025 93.4302C263.619 95.2427 261.554 95.7468 261.554 95.7468L251.622 97.7513C251.622 97.7513 254.509 94.8406 258.223 91.1317C261.932 87.4228 266.703 86.9907 268.258 86.9907H271.481C269.998 65.7697 271.145 51.2762 271.931 40.8277C272.717 30.3732 275.286 19.0185 275.286 19.0185L216.195 0L157.093 19.0785C160.286 32.3957 161.324 52.6685 161.588 60.8665C161.853 69.0644 161.096 86.4986 161.096 86.4986H161.114C162.663 85.2983 164.361 84.2961 166.18 83.5219C170.369 81.7154 175.236 81.1873 179.743 82.0635L188.163 78.8768L188.223 78.8528L188.337 78.9548L206.011 95.4767L206.815 96.2269L206.839 96.2509L203.034 94.7626C202.944 94.7025 202.854 94.6485 202.764 94.5885C202.164 94.1984 201.594 93.8383 201.054 93.4962C193.282 88.5811 191.746 88.311 191.746 88.311C192.718 89.2532 193.6 90.2855 194.392 91.3777L194.362 91.3657C197.147 95.2187 198.791 99.9478 198.791 105.061C198.791 112.869 194.968 119.777 189.093 124.032L183.308 117.478C183.242 117.304 183.17 117.148 183.104 116.98C182.936 116.572 182.762 116.176 182.581 115.816C178.915 108.38 174.161 112.029 174.161 112.029L178.717 122.753L172.967 117.496C167.566 107.077 162.543 112.095 162.159 112.497L162.135 112.521L166.69 121.067L167.02 121.685L163.143 118.696C163.143 118.696 162.621 118.042 160.754 115.648C158.888 113.247 156.235 112.935 154.321 114.093L153.889 114.369C152.652 111.513 151.962 108.368 151.962 105.061C151.608 99.2936 155.347 91.7018 158.804 88.173C158.546 88.365 155.593 90.5376 152.844 94.6845C151.044 97.3012 149.652 100.788 149.346 104.167V104.179C148.685 109.868 149.952 114.201 150.558 115.864C149.706 116.452 149.094 116.902 149.094 116.902L153.198 124.44L153.192 124.434ZM252.234 77.0283L268.438 81.5354C268.438 81.5354 268.138 81.5534 262.52 81.5534C256.903 81.5534 253.224 84.5481 253.224 84.5481L246.011 89.5353L226.716 95.6688C226.716 95.6688 236.468 85.8924 241.263 81.1213C246.065 76.3502 252.228 77.0223 252.228 77.0223L252.234 77.0283ZM234.938 13.1971L229.825 19.5527L228.006 16.4319L234.938 13.1971ZM218.26 19.6787L218.272 5.21524L229.291 24.2818L238.959 12.2789V23.1595L233.864 29.9231L238.959 30.3852V43.4323C231.847 42.6341 218.272 42.3641 218.272 42.3641L218.26 29.1309L223.907 29.287L218.26 19.6787ZM216.46 45.2388C222.563 45.2388 228.714 45.9949 228.714 45.9949L230.023 49.3858L223.517 49.2057L217.444 52.2064L220.396 57.6377L221.645 56.3894V54.3129L226.998 55.5432L231.217 52.5785L232.543 55.9153L228.786 62.973L232.999 61.7907L231.055 71.345L226.476 77.1364L223.541 73.8116L216.46 70.8589L209.402 73.8116L206.467 77.1364V70.5048L211.958 65.1575L216.466 67.318L220.997 65.1575L226.476 70.4928V64.4553L223.433 60.9085C223.433 60.9085 222.929 62.5229 221.885 62.7749C220.841 63.033 218.278 61.9227 218.278 61.9227C218.278 61.9227 218.062 63.213 215.865 63.213L215.499 52.2064L209.426 49.2057L202.92 49.3858L204.229 45.9949C204.229 45.9949 210.368 45.2388 216.466 45.2388H216.46ZM227.106 51.8223L225.444 53.1967L222.767 52.5125V52.0084L226.698 51.3722L227.1 51.8223H227.106ZM205.939 55.5492L211.292 54.3189V56.3954L206.509 63.8792L204.145 62.985L200.388 55.9273L201.714 52.5905L205.933 55.5552L205.939 55.5492ZM205.843 51.8223L206.245 51.3722L210.176 52.0084V52.5125L207.499 53.1967L205.837 51.8223H205.843ZM205.033 16.4379L203.214 19.5587L198.101 13.2031L205.033 16.4379ZM194.08 30.3912L199.175 29.9291L194.08 23.1655V12.2849L203.749 24.2938L214.767 5.22724L214.779 19.6907L209.132 29.293L214.779 29.1369L214.767 42.3701C214.767 42.3701 201.192 42.6461 194.08 43.4383V30.3912ZM189.447 70.4148L192.004 58.2319L191.668 68.8724L207.187 84.3921V81.6614L210.584 76.8423L216.46 74.4477L222.359 76.8423L225.756 81.6614V84.3921L241.233 68.9204L241.035 58.2919L243.664 70.2467L216.472 97.4392L189.447 70.4148ZM214.947 102.732C220.342 108.182 229.093 113.547 229.363 113.715L206.575 108.812C205.597 103.447 204.253 100.386 204.253 100.386L214.947 102.732ZM201.708 129.607C201.708 129.607 216.069 131.827 231.493 130.429C246.917 129.031 262.719 121.883 262.719 121.883C262.719 121.883 258.115 132.283 245.38 138.543C232.639 144.802 217.312 149.268 216.141 149.94C216.141 149.94 210.722 147.743 204.853 145.883C198.221 143.788 190.671 140.421 190.671 140.421C190.671 140.421 197.723 135.158 201.72 129.613L201.708 129.607Z" fill="#010101"/>
</g>
<defs>
<clipPath id="clip0_876_35311">
<rect width="433.015" height="252.15" fill="white"/>
</clipPath>
</defs>
</svg>
